<svg width="164" height="87" viewBox="0 0 164 87" fill="none" xmlns="http://www.w3.org/2000/svg">
<path d="M57.5735 48.1213C56.1848 48.1213 55.006 47.9244 54.0371 47.5306C53.0681 47.1317 52.3297 46.5047 51.8219 45.6497C51.3141 44.7896 51.0602 43.6652 51.0602 42.2765V39.6106L49.8322 39.4163V36.043H56.7574V39.4163L55.5294 39.6106V42.1211C55.5294 42.8724 55.6693 43.4346 55.9491 43.8077C56.2289 44.1807 56.7522 44.3673 57.5191 44.3673C58.286 44.3673 58.8093 44.1807 59.0891 43.8077C59.3689 43.4346 59.5088 42.8724 59.5088 42.1211V39.6106L58.2808 39.4163V36.043H64.4832V39.4163L63.2551 39.6106V42.2765C63.2551 44.1989 62.781 45.6549 61.8328 46.6446C60.8845 47.6291 59.4648 48.1213 57.5735 48.1213ZM65.2449 47.9814V44.8803L66.1776 44.7015V40.2945L65.2449 40.1158V37.0379H71.7892V40.1158L70.8565 40.2945V41.577H74.5951V40.2945L73.6624 40.1158V36.999H80.2067V40.1158L79.2741 40.2945V44.7015L80.2067 44.8803V47.9814H73.6624V44.8803L74.5951 44.7015V43.4035H70.8565V44.7015L71.7892 44.8803V47.9814H65.2449ZM82.1809 44.002L81.1783 39.1442V36.043H87.1553V39.1442L86.1604 44.002H82.1809ZM81.6835 47.9814V44.9968H86.6578V47.9814H81.6835Z" fill="#27B06E"/>
<path d="M56.5631 67.7532C54.506 67.7532 52.8971 67.2273 51.7364 66.1754C50.5809 65.1183 50.0032 63.5613 50.0032 61.5042C50.0032 59.5041 50.5628 58.004 51.682 57.0039C52.8012 55.9987 54.3531 55.4961 56.3377 55.4961C57.4051 55.4961 58.3533 55.5816 59.1824 55.7526C60.0166 55.9184 60.7835 56.1671 61.483 56.4987V60.0507H59.1435C58.9363 59.7554 58.6798 59.5015 58.3741 59.289C58.0683 59.0714 57.6979 58.9626 57.2626 58.9626C56.7963 58.9626 56.3921 59.0766 56.0501 59.3046C55.7133 59.5274 55.4516 59.8305 55.2651 60.2139C55.0786 60.5974 54.9853 61.0275 54.9853 61.5042C54.9853 62.3436 55.1744 62.9861 55.5527 63.4317C55.9361 63.8722 56.5294 64.0924 57.3326 64.0924C57.5398 64.0924 57.7367 64.082 57.9233 64.0613C58.1098 64.0354 58.2911 64.0043 58.4673 63.968V63.0276H56.975V60.8979H61.8095V66.5718C61.0685 66.8827 60.2653 67.1573 59.4 67.3957C58.5399 67.634 57.5942 67.7532 56.5631 67.7532ZM62.7266 67.6133V64.2401L63.9546 64.0457V59.2424L62.7266 59.0481V55.6749H70.0793V59.0481L68.929 59.2424V64.6287C69.4316 64.6287 69.8643 64.5276 70.227 64.3256C70.5897 64.1183 70.8954 63.8877 71.1441 63.6338H72.4421V67.6133H62.7266ZM73.4059 67.6133V64.2401L74.6339 64.0457V59.2579L73.4059 59.0636V55.6749H84.0308V59.6543H82.7794C82.3856 59.3797 81.927 59.1465 81.4037 58.9548C80.8855 58.7579 80.2871 58.6595 79.6083 58.6595V60.7813L81.94 60.2761V63.0276L79.6083 62.5224V64.6287C80.2767 64.6287 80.87 64.5354 81.3882 64.3489C81.9063 64.1572 82.3545 63.9188 82.7328 63.6338H84.0308V67.6133H73.4059ZM85.0334 67.6133V64.2401L86.2615 64.0457V59.2579L85.0334 59.0636V55.6749H95.6583V59.6543H94.4069C94.0131 59.3797 93.5546 59.1465 93.0312 58.9548C92.5131 58.7579 91.9146 58.6595 91.2358 58.6595V60.7813L93.5675 60.2761V63.0276L91.2358 62.5224V64.6287C91.9042 64.6287 92.4975 64.5354 93.0157 64.3489C93.5338 64.1572 93.982 63.9188 94.3603 63.6338H95.6583V67.6133H85.0334Z" fill="#27B06E"/>
<path d="M99.1327 67.6133V64.2401L100.361 64.0457V59.2424L99.1327 59.0481V55.6749H106.136C106.97 55.6749 107.757 55.7137 108.498 55.7915C109.245 55.8692 109.903 56.0298 110.473 56.2733C111.043 56.5169 111.488 56.8822 111.809 57.3692C112.136 57.8563 112.299 58.5118 112.299 59.3357C112.299 60.0248 112.172 60.5974 111.918 61.0534C111.664 61.5042 111.312 61.8643 110.861 62.1337C110.416 62.398 109.897 62.5949 109.307 62.7244C108.721 62.8488 108.089 62.9317 107.41 62.9732C106.731 63.0094 106.04 63.0276 105.335 63.0276V64.0457L106.563 64.2401V67.6133H99.1327ZM105.335 60.8901C105.952 60.8901 106.436 60.8021 106.788 60.6259C107.146 60.4497 107.325 60.0507 107.325 59.4289C107.325 59.0196 107.242 58.7139 107.076 58.5118C106.915 58.3045 106.687 58.1672 106.392 58.0999C106.097 58.0325 105.744 57.9988 105.335 57.9988V60.8901ZM113.107 67.6133V64.2401L114.335 64.0457V59.2424L113.107 59.0481V55.6749H120.538V59.0481L119.31 59.2424V64.0457L120.538 64.2401V67.6133H113.107ZM128.147 67.7532C126.774 67.7532 125.585 67.52 124.58 67.0537C123.579 66.5873 122.805 65.8904 122.256 64.9629C121.712 64.0354 121.439 62.8825 121.439 61.5042C121.439 60.131 121.706 59.0015 122.24 58.1154C122.779 57.2293 123.546 56.5713 124.541 56.1412C125.536 55.7111 126.717 55.4961 128.085 55.4961C129.075 55.4961 129.963 55.5842 130.751 55.7604C131.538 55.9365 132.261 56.1749 132.919 56.4754V60.3461H130.58C130.373 59.9678 130.116 59.644 129.81 59.3745C129.505 59.0999 129.134 58.9626 128.699 58.9626C128.16 58.9626 127.712 59.0766 127.354 59.3046C127.002 59.5326 126.738 59.8279 126.561 60.1906C126.391 60.5533 126.305 60.9368 126.305 61.3409C126.305 61.9938 126.437 62.5094 126.701 62.8877C126.971 63.2659 127.326 63.5354 127.766 63.696C128.212 63.8514 128.701 63.9292 129.235 63.9292C129.852 63.9292 130.487 63.854 131.139 63.7038C131.792 63.5483 132.386 63.3695 132.919 63.1675V66.9604C132.184 67.2091 131.43 67.4034 130.658 67.5433C129.885 67.6832 129.049 67.7532 128.147 67.7532ZM133.875 67.6133V64.2401L135.103 64.0457V59.2424L133.875 59.0481V55.6749H140.078V60.4627L142.277 55.6749H148.441V57.5869C147.721 58.1102 147.06 58.7087 146.459 59.3823C145.858 60.0559 145.309 60.7632 144.811 61.5042C145.36 62.2555 145.925 63.0146 146.505 63.7815C147.091 64.5484 147.731 65.2375 148.425 65.8489V67.6133H142.277L140.078 62.6312V67.6133H133.875Z" fill="#27B06E"/>
<path d="M33.1786 36.2318L38.2442 32.5779C38.4172 32.4531 38.4507 32.2061 38.3198 32.0377C30.2659 21.6732 20.5324 22.8333 16.6391 24.734C-0.823772 31.1715 3.53627 54.1697 7.94512 65.002C7.9817 65.0919 8.05014 65.1606 8.13857 65.2005L14.3963 68.0266C14.7923 68.2054 14.6267 68.8014 14.1952 68.7504L8.53093 68.0804C8.27148 68.0497 8.05915 68.2839 8.11501 68.5391L12.0014 86.2928C12.0482 86.5067 12.2677 86.6366 12.4775 86.5736C31.8751 80.75 40.5559 53.8963 42.5742 40.6409C42.6123 40.3913 42.3973 40.1867 42.1471 40.221L25.0784 42.5567C25.0258 42.5639 24.9752 42.5821 24.9301 42.61L20.4178 45.3994C20.1764 45.5486 20.1778 45.9003 20.4205 46.0476L27.8433 50.5513C28.0181 50.6574 28.0777 50.8828 27.978 51.0614L21.6308 62.4335C21.5381 62.5995 21.3376 62.6737 21.1707 62.5824C19.1129 61.457 16.1934 56.9005 14.9069 54.6079C14.8847 54.5684 14.871 54.5285 14.8642 54.4838C13.9434 48.4204 13.6708 35.8154 19.89 33.3721C25.8731 31.0216 30.7411 34.1162 32.6614 36.1765C32.7966 36.3215 33.0177 36.3478 33.1786 36.2318Z" fill="#27B06E" stroke="#D5D5D5" stroke-opacity="0.39" stroke-width="0.126687"/>
<path d="M16.5745 20.3469C11.6935 15.4465 10.3891 9.30938 10.3255 6.4277C10.3205 6.20284 10.5204 6.03339 10.7414 6.07554C16.307 7.13718 18.835 15.3018 19.4709 19.6722C19.5005 19.8753 19.3595 20.0613 19.1568 20.0937L16.9013 20.453C16.782 20.472 16.6598 20.4326 16.5745 20.3469Z" fill="#27B06E" stroke="#D5D5D5" stroke-opacity="0.39" stroke-width="0.126687"/>
<path d="M22.3158 20.2186C17.6938 9.76946 23.0395 2.70853 26.5645 0.261635C26.7286 0.1477 26.9524 0.190995 27.0662 0.35523C31.5704 6.85629 27.8787 16.4228 25.3174 20.658C25.2377 20.7897 25.0875 20.8549 24.9357 20.8296L22.6002 20.4403C22.4751 20.4195 22.3671 20.3346 22.3158 20.2186Z" fill="#27B06E" stroke="#D5D5D5" stroke-opacity="0.39" stroke-width="0.126687"/>
<path d="M27.5827 20.9447C30.2405 10.4152 36.138 7.17827 39.1572 6.79016C39.384 6.761 39.5677 6.95367 39.5365 7.18024C38.8133 12.4394 32.7486 19.0989 29.5555 22.0011C29.4402 22.1059 29.2749 22.1259 29.1356 22.0562L27.7797 21.3783C27.6212 21.299 27.5393 21.1165 27.5827 20.9447Z" fill="#27B06E" stroke="#D5D5D5" stroke-opacity="0.39" stroke-width="0.126687"/>
</svg>
