<svg width="165" height="57" viewBox="0 0 165 57" fill="none" xmlns="http://www.w3.org/2000/svg">
<path d="M19.9522 23.9112L23.2432 21.5374C23.3556 21.4563 23.3773 21.2958 23.2923 21.1864C18.0599 14.4529 11.7363 15.2065 9.20685 16.4413C-2.13833 20.6237 0.694286 35.565 3.55861 42.6025C3.58237 42.6609 3.62684 42.7055 3.68429 42.7315L7.74977 44.5675C8.00703 44.6837 7.89947 45.0709 7.61914 45.0378L3.93919 44.6025C3.77064 44.5826 3.63269 44.7347 3.66898 44.9005L6.19386 56.4346C6.22429 56.5736 6.3669 56.658 6.50317 56.6171C19.1053 52.8336 24.745 35.3874 26.0563 26.7757C26.081 26.6135 25.9414 26.4806 25.7788 26.5029L14.6897 28.0203C14.6555 28.025 14.6227 28.0368 14.5933 28.055L11.6618 29.8672C11.505 29.9641 11.5059 30.1926 11.6636 30.2883L16.486 33.2142C16.5996 33.2831 16.6382 33.4296 16.5735 33.5457L12.4499 40.9338C12.3897 41.0417 12.2593 41.0898 12.1509 41.0306C10.814 40.2994 8.91732 37.3391 8.08151 35.8497C8.0671 35.824 8.0582 35.7982 8.05378 35.7691C7.45553 31.8299 7.27846 23.6407 11.3189 22.0534C15.206 20.5263 18.3686 22.5367 19.6162 23.8752C19.704 23.9695 19.8477 23.9866 19.9522 23.9112Z" fill="#27B06E" stroke="#D5D5D5" stroke-width="0.0823057"/>
<path d="M9.16497 13.5911C5.99389 10.4073 5.14646 6.42022 5.10513 4.54806C5.10191 4.40197 5.23179 4.29189 5.37533 4.31927C8.99115 5.00899 10.6336 10.3134 11.0467 13.1527C11.0659 13.2847 10.9743 13.4055 10.8426 13.4265L9.37726 13.66C9.29974 13.6723 9.22036 13.6467 9.16497 13.5911Z" fill="#27B06E" stroke="#D5D5D5" stroke-width="0.0823057"/>
<path d="M12.8947 13.5076C9.89198 6.71903 13.3649 2.13171 15.655 0.542021C15.7616 0.468 15.9071 0.496128 15.981 0.602828C18.9072 4.82641 16.5089 11.0416 14.8448 13.793C14.7931 13.8786 14.6955 13.9209 14.5968 13.9045L13.0796 13.6516C12.9983 13.6381 12.9281 13.5829 12.8947 13.5076Z" fill="#27B06E" stroke="#D5D5D5" stroke-width="0.0823057"/>
<path d="M16.3163 13.9798C18.043 7.13905 21.8745 5.0361 23.836 4.78395C23.9834 4.76501 24.1027 4.89018 24.0825 5.03738C23.6125 8.45415 19.6725 12.7806 17.598 14.6662C17.5231 14.7342 17.4157 14.7472 17.3252 14.7019L16.4443 14.2615C16.3413 14.21 16.2881 14.0915 16.3163 13.9798Z" fill="#27B06E" stroke="#D5D5D5" stroke-width="0.0823057"/>
<path d="M51.843 24.4405C50.1415 24.4405 48.6971 24.1992 47.5099 23.7167C46.3226 23.2278 45.4179 22.4596 44.7957 21.412C44.1735 20.3581 43.8624 18.9804 43.8624 17.2789V14.0124L42.3577 13.7743V9.64122H50.843V13.7743L49.3383 14.0124V17.0885C49.3383 18.009 49.5098 18.6979 49.8526 19.155C50.1954 19.6121 50.8367 19.8407 51.7763 19.8407C52.7159 19.8407 53.3572 19.6121 53.7 19.155C54.0429 18.6979 54.2143 18.009 54.2143 17.0885V14.0124L52.7096 13.7743V9.64122H60.3092V13.7743L58.8045 14.0124V17.2789C58.8045 19.6344 58.2236 21.4184 57.0618 22.631C55.8999 23.8373 54.1603 24.4405 51.843 24.4405ZM61.2425 24.269V20.4692L62.3853 20.2502V14.8505L61.2425 14.6314V10.8602H69.2611V14.6314L68.1183 14.8505V16.4218H72.699V14.8505L71.5563 14.6314V10.8126H79.5749V14.6314L78.4321 14.8505V20.2502L79.5749 20.4692V24.269H71.5563V20.4692L72.699 20.2502V18.6598H68.1183V20.2502L69.2611 20.4692V24.269H61.2425ZM81.9938 19.3931L80.7653 13.441V9.64122H88.0887V13.441L86.8697 19.3931H81.9938ZM81.3843 24.269V20.6121H87.4792V24.269H81.3843Z" fill="#27B06E"/>
<path d="M50.6049 48.8628C48.0844 48.8628 46.1131 48.2184 44.691 46.9296C43.2752 45.6344 42.5673 43.7266 42.5673 41.2061C42.5673 38.7554 43.2529 36.9174 44.6243 35.6921C45.9957 34.4604 47.8971 33.8445 50.3288 33.8445C51.6366 33.8445 52.7985 33.9493 53.8143 34.1588C54.8365 34.362 55.7761 34.6667 56.6332 35.0731V39.4252H53.7667C53.5127 39.0633 53.1985 38.7522 52.8239 38.4919C52.4493 38.2253 51.9953 38.092 51.462 38.092C50.8906 38.092 50.3954 38.2316 49.9764 38.511C49.5637 38.784 49.2431 39.1554 49.0146 39.6252C48.786 40.095 48.6717 40.622 48.6717 41.2061C48.6717 42.2346 48.9034 43.0219 49.3669 43.5679C49.8367 44.1075 50.5637 44.3773 51.5478 44.3773C51.8017 44.3773 52.043 44.3646 52.2715 44.3392C52.5001 44.3075 52.7223 44.2694 52.9382 44.225V43.0726H51.1097V40.4633H57.0332V47.4153C56.1253 47.7962 55.1412 48.1327 54.081 48.4248C53.027 48.7168 51.8684 48.8628 50.6049 48.8628ZM58.1569 48.6914V44.5583L59.6616 44.3202V38.4348L58.1569 38.1967V34.0636H67.166V38.1967L65.7565 38.4348V45.0345C66.3724 45.0345 66.9025 44.9106 67.3469 44.663C67.7914 44.4091 68.1659 44.1266 68.4707 43.8155H70.0611V48.6914H58.1569ZM71.242 48.6914V44.5583L72.7467 44.3202V38.4538L71.242 38.2158V34.0636H84.2604V38.9395H82.7271C82.2446 38.603 81.6827 38.3173 81.0415 38.0824C80.4066 37.8412 79.6733 37.7205 78.8416 37.7205V40.3204L81.6986 39.7014V43.0726L78.8416 42.4536V45.0345C79.6606 45.0345 80.3875 44.9202 81.0224 44.6916C81.6573 44.4567 82.2065 44.1647 82.67 43.8155H84.2604V48.6914H71.242ZM85.4889 48.6914V44.5583L86.9936 44.3202V38.4538L85.4889 38.2158V34.0636H98.5072V38.9395H96.974C96.4915 38.603 95.9296 38.3173 95.2884 38.0824C94.6535 37.8412 93.9202 37.7205 93.0885 37.7205V40.3204L95.9455 39.7014V43.0726L93.0885 42.4536V45.0345C93.9075 45.0345 94.6344 44.9202 95.2693 44.6916C95.9042 44.4567 96.4534 44.1647 96.9169 43.8155H98.5072V48.6914H85.4889Z" fill="#27B06E"/>
<path d="M103.176 48.6914V44.5583L104.681 44.3202V38.4348L103.176 38.1967V34.0636H111.757C112.779 34.0636 113.744 34.1112 114.652 34.2064C115.566 34.3017 116.372 34.4985 117.071 34.7969C117.769 35.0953 118.315 35.5429 118.709 36.1397C119.109 36.7365 119.309 37.5396 119.309 38.5491C119.309 39.3935 119.153 40.095 118.842 40.6537C118.531 41.2061 118.099 41.6473 117.547 41.9775C117.001 42.3013 116.366 42.5425 115.642 42.7012C114.925 42.8536 114.15 42.9552 113.319 43.006C112.487 43.0504 111.639 43.0726 110.776 43.0726V44.3202L112.281 44.5583V48.6914H103.176ZM110.776 40.4537C111.531 40.4537 112.125 40.3458 112.557 40.1299C112.995 39.9141 113.214 39.4252 113.214 38.6633C113.214 38.1618 113.112 37.7872 112.909 37.5396C112.712 37.2856 112.433 37.1174 112.071 37.0349C111.709 36.9523 111.278 36.9111 110.776 36.9111V40.4537ZM120.299 48.6914V44.5583L121.804 44.3202V38.4348L120.299 38.1967V34.0636H129.404V38.1967L127.899 38.4348V44.3202L129.404 44.5583V48.6914H120.299ZM138.727 48.8628C137.044 48.8628 135.587 48.5771 134.356 48.0057C133.13 47.4343 132.181 46.5804 131.508 45.444C130.842 44.3075 130.508 42.8949 130.508 41.2061C130.508 39.5236 130.835 38.1396 131.489 37.0539C132.149 35.9682 133.089 35.1619 134.308 34.635C135.527 34.108 136.975 33.8445 138.651 33.8445C139.863 33.8445 140.952 33.9525 141.917 34.1683C142.882 34.3842 143.768 34.6763 144.574 35.0445V39.7871H141.708C141.454 39.3236 141.139 38.9268 140.765 38.5967C140.39 38.2602 139.936 38.092 139.403 38.092C138.743 38.092 138.194 38.2316 137.756 38.511C137.324 38.7903 137 39.1522 136.784 39.5966C136.575 40.0411 136.47 40.5109 136.47 41.0061C136.47 41.806 136.632 42.4378 136.956 42.9012C137.286 43.3647 137.721 43.6948 138.26 43.8917C138.806 44.0821 139.406 44.1774 140.06 44.1774C140.816 44.1774 141.593 44.0853 142.393 43.9012C143.193 43.7107 143.92 43.4917 144.574 43.2441V47.8914C143.673 48.1962 142.749 48.4343 141.803 48.6057C140.857 48.7771 139.832 48.8628 138.727 48.8628ZM145.746 48.6914V44.5583L147.25 44.3202V38.4348L145.746 38.1967V34.0636H153.345V39.93L156.04 34.0636H163.592V36.4063C162.71 37.0476 161.9 37.7809 161.164 38.6062C160.427 39.4316 159.754 40.2982 159.145 41.2061C159.818 42.1267 160.51 43.0568 161.221 43.9964C161.938 44.936 162.722 45.7804 163.573 46.5296V48.6914H156.04L153.345 42.587V48.6914H145.746Z" fill="#27B06E"/>
</svg>
