<svg width="98" height="88" viewBox="0 0 98 88" fill="none" xmlns="http://www.w3.org/2000/svg">
<g filter="url(#filter0_dd_292_359)">
<rect x="3.82715" y="4" width="90.3462" height="81" rx="10.9038" fill="#C1C1C1" shape-rendering="crispEdges"/>
<g clip-path="url(#clip0_292_359)">
<g clip-path="url(#clip1_292_359)">
<mask id="mask0_292_359" style="mask-type:luminance" maskUnits="userSpaceOnUse" x="30" y="25" width="38" height="39">
<path d="M30.3081 25.8076H67.6927V63.1922H30.3081V25.8076Z" fill="white"/>
</mask>
<g mask="url(#mask0_292_359)">
<path d="M53.999 49.4984C54.912 48.6005 55.6383 47.5307 56.1357 46.3506C56.6332 45.1706 56.8921 43.9037 56.8975 42.6231C56.9028 41.3425 56.6545 40.0735 56.1669 38.8894C55.6793 37.7052 54.9621 36.6293 54.0566 35.7238C53.151 34.8183 52.0751 34.101 50.891 33.6134C49.7068 33.1258 48.4378 32.8775 47.1572 32.8829C45.8766 32.8883 44.6098 33.1471 43.4297 33.6446C42.2497 34.1421 41.1799 34.8683 40.2819 35.7814C38.488 37.6056 37.4874 40.0647 37.4981 42.6231C37.5088 45.1816 38.5299 47.6322 40.339 49.4413C42.1482 51.2504 44.5988 52.2715 47.1572 52.2822C49.7157 52.2929 52.1748 51.2924 53.999 49.4984ZM53.999 49.4984L61.4572 56.9613" stroke="#F4F5F7" stroke-width="3.11071" stroke-linecap="round" stroke-linejoin="round"/>
</g>
</g>
</g>
</g>
<defs>
<filter id="filter0_dd_292_359" x="0.827148" y="0" width="96.3462" height="88" filterUnits="userSpaceOnUse" color-interpolation-filters="sRGB">
<feFlood flood-opacity="0" result="BackgroundImageFix"/>
<feColorMatrix in="SourceAlpha" type="matrix" values="0 0 0 0 0 0 0 0 0 0 0 0 0 0 0 0 0 0 127 0" result="hardAlpha"/>
<feOffset dy="1"/>
<feGaussianBlur stdDeviation="1"/>
<feComposite in2="hardAlpha" operator="out"/>
<feColorMatrix type="matrix" values="0 0 0 0 0 0 0 0 0 0 0 0 0 0 0 0 0 0 0.06 0"/>
<feBlend mode="normal" in2="BackgroundImageFix" result="effect1_dropShadow_292_359"/>
<feColorMatrix in="SourceAlpha" type="matrix" values="0 0 0 0 0 0 0 0 0 0 0 0 0 0 0 0 0 0 127 0" result="hardAlpha"/>
<feOffset dy="-1"/>
<feGaussianBlur stdDeviation="1.5"/>
<feComposite in2="hardAlpha" operator="out"/>
<feColorMatrix type="matrix" values="0 0 0 0 0 0 0 0 0 0 0 0 0 0 0 0 0 0 0.07 0"/>
<feBlend mode="normal" in2="effect1_dropShadow_292_359" result="effect2_dropShadow_292_359"/>
<feBlend mode="normal" in="SourceGraphic" in2="effect2_dropShadow_292_359" result="shape"/>
</filter>
<clipPath id="clip0_292_359">
<rect width="37.3846" height="37.3846" fill="white" transform="translate(30.3081 25.8076)"/>
</clipPath>
<clipPath id="clip1_292_359">
<rect width="37.3846" height="37.3846" fill="white" transform="translate(30.3081 25.8076)"/>
</clipPath>
</defs>
</svg>
