<svg width="195" height="82" viewBox="0 0 195 82" fill="none" xmlns="http://www.w3.org/2000/svg">
<g filter="url(#filter0_dd_351_300)">
<rect width="185" height="59.5763" transform="translate(5 7)" fill="#27B06E"/>
<path d="M35.6574 28.1609V38.9548C35.6574 40.1567 35.3703 41.2169 34.7962 42.1355C34.222 43.0542 33.4144 43.7661 32.3733 44.2714C31.3322 44.7689 30.1303 45.0177 28.7677 45.0177C27.405 45.0177 26.2032 44.7689 25.1621 44.2714C24.1286 43.7661 23.3248 43.0542 22.7506 42.1355C22.1842 41.2169 21.9009 40.1567 21.9009 38.9548V28.1609H25.3458V38.6792C25.3458 39.3146 25.4874 39.8849 25.7706 40.3901C26.0615 40.8877 26.4634 41.2782 26.9763 41.5614C27.4969 41.8446 28.094 41.9863 28.7677 41.9863C29.449 41.9863 30.0499 41.8446 30.5705 41.5614C31.091 41.2782 31.4891 40.8877 31.7647 40.3901C32.048 39.8849 32.1896 39.3146 32.1896 38.6792V28.1609H35.6574ZM49.5058 33.5119C49.2685 32.7234 48.8436 32.1072 48.2312 31.6631C47.6187 31.2191 46.8647 30.9933 45.969 30.9857C45.1117 30.9933 44.3576 31.2115 43.7069 31.6402C43.0562 32.0689 42.551 32.6928 42.1912 33.5119C41.8314 34.331 41.6515 35.3109 41.6515 36.4515C41.6515 37.6075 41.8275 38.5988 42.1797 39.4256C42.5318 40.2523 43.0332 40.8801 43.6839 41.3088C44.3346 41.7375 45.104 41.9556 45.992 41.9633C46.7728 41.9633 47.4465 41.8217 48.013 41.5384C48.5871 41.2552 49.0273 40.8571 49.3335 40.3442C49.6474 39.8237 49.812 39.2151 49.8273 38.5184H46.2217V35.9233H53.1573V37.9902C53.1573 39.4218 52.8511 40.6696 52.2387 41.7336C51.6339 42.7901 50.7842 43.6015 49.6895 44.168C48.6024 44.7345 47.3623 45.0177 45.969 45.0177C44.4227 45.0177 43.0562 44.6733 41.8696 43.9843C40.6907 43.2877 39.7721 42.3001 39.1138 41.0217C38.4631 39.7356 38.1377 38.2275 38.1377 36.4974C38.1377 34.7444 38.4745 33.221 39.1482 31.9273C39.8219 30.6335 40.7482 29.646 41.9271 28.9647C43.106 28.2757 44.4303 27.9312 45.9001 27.9312C47.1326 27.9312 48.2618 28.1685 49.2876 28.6431C50.3134 29.1178 51.1478 29.78 51.7909 30.6297C52.4416 31.4718 52.8435 32.4325 52.9966 33.5119H49.5058ZM55.6836 28.1609H59.1284V41.9403H66.2937V44.7881H55.6836V28.1609ZM68.5214 28.1609H79.6828V31.0086H71.9663V35.0506H79.1086V37.8984H71.9663V41.9403H79.7058V44.7881H68.5214V28.1609ZM82.3698 28.1609H93.5311V31.0086H85.8146V35.0506H92.957V37.8984H85.8146V41.9403H93.5541V44.7881H82.3698V28.1609ZM112.019 32.4325H114.843V34.8209H112.019V41.6188H109.079V26.0251H112.019V32.4325ZM95.4373 28.2068H100.191V25.9791H103.108V28.2068H107.839V30.5263H95.4373V28.2068ZM96.4478 35.3032C96.4478 34.5071 96.666 33.8028 97.1023 33.1904C97.5463 32.578 98.1626 32.1033 98.9511 31.7665C99.7396 31.4297 100.635 31.2612 101.638 31.2612C102.641 31.2612 103.529 31.4297 104.302 31.7665C105.083 32.1033 105.692 32.578 106.128 33.1904C106.564 33.8028 106.782 34.5071 106.782 35.3032C106.782 36.0994 106.564 36.7998 106.128 37.4046C105.699 38.0017 105.094 38.4687 104.314 38.8055C103.533 39.1347 102.641 39.2993 101.638 39.2993C100.628 39.2993 99.7281 39.1347 98.9396 38.8055C98.1587 38.4687 97.5463 37.9979 97.1023 37.3931C96.666 36.7883 96.4478 36.0917 96.4478 35.3032ZM98.4688 40.4246H101.385V44.191H112.776V46.5335H98.4688V40.4246ZM99.3185 35.3032C99.3109 35.8697 99.5176 36.3061 99.9386 36.6123C100.36 36.9185 100.926 37.0716 101.638 37.0716C102.358 37.0716 102.932 36.9185 103.36 36.6123C103.789 36.3061 104.004 35.8697 104.004 35.3032C104.004 34.7367 103.789 34.2966 103.36 33.9827C102.932 33.6612 102.358 33.4966 101.638 33.4889C100.926 33.4966 100.36 33.6612 99.9386 33.9827C99.5176 34.2966 99.3109 34.7367 99.3185 35.3032ZM121.963 28.1609H128.485C129.718 28.1609 130.782 28.3982 131.677 28.8728C132.573 29.3474 133.254 30.0096 133.721 30.8593C134.196 31.7014 134.433 32.6698 134.433 33.7645C134.433 34.8745 134.192 35.8544 133.71 36.7041C133.235 37.5462 132.542 38.2007 131.631 38.6677C130.728 39.1347 129.649 39.3682 128.393 39.3682H125.408V44.7881H121.963V28.1609ZM127.842 36.5893C128.837 36.5893 129.591 36.3367 130.104 35.8314C130.625 35.3185 130.881 34.6296 130.873 33.7645C130.881 32.9148 130.625 32.2411 130.104 31.7435C129.591 31.2459 128.837 30.9933 127.842 30.9857H125.408V36.5893H127.842ZM140.06 44.7881H136.615V28.1609H140.06V44.7881ZM153.977 33.9482C153.839 33.0373 153.445 32.3177 152.794 31.7895C152.144 31.2612 151.328 30.9933 150.348 30.9857C149.483 30.9933 148.726 31.2115 148.075 31.6402C147.432 32.0689 146.934 32.6966 146.582 33.5234C146.23 34.3425 146.054 35.3262 146.054 36.4745C146.054 37.6457 146.23 38.6409 146.582 39.46C146.942 40.2791 147.439 40.8992 148.075 41.3203C148.718 41.7413 149.468 41.9556 150.325 41.9633C151.282 41.9556 152.09 41.703 152.748 41.2054C153.407 40.7002 153.816 40.0036 153.977 39.1155L157.468 39.1385C157.338 40.1873 156.966 41.1595 156.354 42.0552C155.742 42.9508 154.915 43.6704 153.874 44.2139C152.833 44.7498 151.635 45.0177 150.28 45.0177C148.787 45.0177 147.455 44.6809 146.284 44.0072C145.12 43.3259 144.205 42.3422 143.539 41.0561C142.873 39.7624 142.54 38.2352 142.54 36.4745C142.54 34.7061 142.873 33.1789 143.539 31.8928C144.213 30.6067 145.135 29.6268 146.306 28.9532C147.478 28.2719 148.802 27.9312 150.28 27.9312C151.558 27.9312 152.714 28.1685 153.747 28.6431C154.781 29.1178 155.619 29.8067 156.262 30.7101C156.913 31.6134 157.315 32.6928 157.468 33.9482H153.977ZM159.879 28.1609H163.324V35.5329H163.554L169.594 28.1609H173.751L167.55 35.6018L173.819 44.7881H169.686L165.07 37.9213L163.324 40.0342V44.7881H159.879V28.1609Z" fill="white"/>
</g>
<path d="M22.2458 66.5767V81.4707L5 66.5767H22.2458Z" fill="#3B3B3B"/>
<defs>
<filter id="filter0_dd_351_300" x="0.29661" y="0.728814" width="194.407" height="70.5507" filterUnits="userSpaceOnUse" color-interpolation-filters="sRGB">
<feFlood flood-opacity="0" result="BackgroundImageFix"/>
<feColorMatrix in="SourceAlpha" type="matrix" values="0 0 0 0 0 0 0 0 0 0 0 0 0 0 0 0 0 0 127 0" result="hardAlpha"/>
<feOffset dy="1.5678"/>
<feGaussianBlur stdDeviation="1.5678"/>
<feComposite in2="hardAlpha" operator="out"/>
<feColorMatrix type="matrix" values="0 0 0 0 0 0 0 0 0 0 0 0 0 0 0 0 0 0 0.06 0"/>
<feBlend mode="normal" in2="BackgroundImageFix" result="effect1_dropShadow_351_300"/>
<feColorMatrix in="SourceAlpha" type="matrix" values="0 0 0 0 0 0 0 0 0 0 0 0 0 0 0 0 0 0 127 0" result="hardAlpha"/>
<feOffset dy="-1.5678"/>
<feGaussianBlur stdDeviation="2.35169"/>
<feComposite in2="hardAlpha" operator="out"/>
<feColorMatrix type="matrix" values="0 0 0 0 0 0 0 0 0 0 0 0 0 0 0 0 0 0 0.07 0"/>
<feBlend mode="normal" in2="effect1_dropShadow_351_300" result="effect2_dropShadow_351_300"/>
<feBlend mode="normal" in="SourceGraphic" in2="effect2_dropShadow_351_300" result="shape"/>
</filter>
</defs>
</svg>
